<mxfile host="app.diagrams.net" modified="2024-04-06T07:51:05.463Z" agent="Mozilla/5.0 (Macintosh; Intel Mac OS X 10_15_7) AppleWebKit/537.36 (KHTML, like Gecko) Chrome/123.0.0.0 Safari/537.36" version="24.2.2" etag="qyVJ4GjxdBW5LzaBiKuy" type="github">
  <diagram name="Trang-1" id="6OByur827_n_l1syePKX">
    <mxGraphModel>
      <root>
        <mxCell id="0" />
        <mxCell id="1" parent="0" />
      </root>
    </mxGraphModel>
  </diagram>
</mxfile>
